<svg width="110" height="110" viewBox="0 0 110 110" fill="none" xmlns="http://www.w3.org/2000/svg">
<path d="M0 10C0 4.47715 4.47715 0 10 0H100C105.523 0 110 4.47715 110 10V100C110 105.523 105.523 110 100 110H10C4.47715 110 0 105.523 0 100V10Z" fill="#FAFAFA"/>
<path d="M25 35C25 32.2386 27.2386 30 30 30H80C82.7614 30 85 32.2386 85 35C85 37.7614 82.7614 40 80 40H30C27.2386 40 25 37.7614 25 35Z" fill="#D9D9D9"/>
<path d="M25 75C25 72.2386 27.2386 70 30 70H80C82.7614 70 85 72.2386 85 75C85 77.7614 82.7614 80 80 80H30C27.2386 80 25 77.7614 25 75Z" fill="#D9D9D9"/>
<path d="M30 50C27.2386 50 25 52.2386 25 55C25 57.7614 27.2386 60 30 60H80C82.7614 60 85 57.7614 85 55C85 52.2386 82.7614 50 80 50H30Z" fill="#D9D9D9"/>
</svg>
